# xmcd CD database file
#
# Track frame offsets:
#	182
#	9500
#	20127
#	30450
#	39487
#	50232
#	69780
#	92015
#	104142
#	113847
#	125702
#	137397
#	148145
#	159362
#	169482
#	179837
#
# Disc length: 2537 seconds
#
# Revision: 0
# Processed by: cddbd v1.5PL3 Copyright (c) Steve Scherf et al.
# Submitted via: Feurio! 1.67 - http://www.feurio.com
#
DISCID=e709e710
DTITLE=Various Artist - Popcorn Oldies "The Great Singers" cd2
DYEAR=1900
DGENRE=Popcorn
TTITLE0=Steve Lawrence - Yet i Know
TTITLE1=Brian Hyland - Itsy Bitsy Teenie Weeny...
TTITLE2=Billy Fury - I Will
TTITLE3=Chordettes - Zorro
TTITLE4=Paul Anka - Ogni Notti
TTITLE5=Nancy Sinatra and Lee Hazlewood - Summerwine
TTITLE6=Billy Stewart - Summertime
TTITLE7=Jodie Sands - With All My Heart
TTITLE8=Babs Tino - Dr. Jekkyl and Mr. Hyde
TTITLE9=Ethel Ennis - The Boy from Ipanema
TTITLE10=Ramsey Lewis - China Gate
TTITLE11=George Maharis - You Always Hurt the One You Love
TTITLE12=Paul Anka - Cheer Up (Stasera Resta Con Me)
TTITLE13=Neil Sedaka - Tu Non Sei (Breaking Up is Hard to Do)
TTITLE14=Tony Orlando - Shirlley
TTITLE15=Alan Dean - Rock and Roll Tarantella
EXTD=
EXTT0=
EXTT1=
EXTT2=
EXTT3=
EXTT4=
EXTT5=
EXTT6=
EXTT7=
EXTT8=
EXTT9=
EXTT10=
EXTT11=
EXTT12=
EXTT13=
EXTT14=
EXTT15=
PLAYORDER=
